<?xml version="1.0" standalone="no"?>
<!DOCTYPE svg PUBLIC "-//W3C//DTD SVG 20010904//EN"
 "http://www.w3.org/TR/2001/REC-SVG-20010904/DTD/svg10.dtd">
<svg version="1.0" xmlns="http://www.w3.org/2000/svg"
 width="512.000000pt" height="512.000000pt" viewBox="0 0 512.000000 512.000000"
 preserveAspectRatio="xMidYMid meet">
<metadata>
Created by potrace 1.16, written by Peter Selinger 2001-2019
</metadata>
<g transform="translate(0.000000,512.000000) scale(0.100000,-0.100000)"
fill="#000000" stroke="none">
<path d="M2445 2915 c-141 -26 -276 -101 -370 -207 -57 -65 -130 -212 -146
-296 -7 -36 -10 -105 -7 -165 6 -114 30 -199 81 -285 18 -30 38 -65 46 -79 20
-38 97 -111 159 -150 248 -159 601 -124 805 80 63 63 135 183 163 271 53 167
41 324 -37 486 -33 69 -56 100 -127 170 -98 96 -171 138 -298 170 -87 23 -167
24 -269 5z m260 -319 c125 -57 198 -174 198 -318 1 -66 -4 -85 -32 -142 -142
-289 -558 -256 -648 53 -48 165 42 349 203 417 81 34 192 30 279 -10z"/>
<path d="M509 1853 c26 -90 108 -264 202 -430 l24 -42 -117 -118 c-125 -127
-138 -151 -123 -230 5 -33 41 -73 253 -285 212 -212 252 -248 285 -253 78 -15
102 -2 231 125 l121 118 45 -29 c160 -103 479 -233 643 -263 l37 -7 0 -171 c0
-162 1 -174 23 -205 43 -63 48 -64 442 -61 l355 3 37 38 38 37 3 180 3 179 57
11 c151 31 428 144 614 252 l57 32 118 -116 c127 -125 151 -138 231 -123 32 5
72 41 284 253 212 212 248 252 253 284 15 80 2 104 -123 231 l-117 118 28 47
c70 119 207 415 207 447 0 3 -163 5 -362 5 l-363 0 -35 -65 c-92 -174 -279
-372 -473 -504 -462 -311 -1087 -333 -1570 -55 -240 138 -448 346 -573 571
l-29 53 -357 0 -357 0 8 -27z"/>
</g>
</svg>
