<?xml version="1.0" standalone="no"?>
<!DOCTYPE svg PUBLIC "-//W3C//DTD SVG 20010904//EN"
 "http://www.w3.org/TR/2001/REC-SVG-20010904/DTD/svg10.dtd">
<svg version="1.0" xmlns="http://www.w3.org/2000/svg"
 width="512.000000pt" height="512.000000pt" viewBox="0 0 512.000000 512.000000"
 preserveAspectRatio="xMidYMid meet">
<metadata>
Created by potrace 1.16, written by Peter Selinger 2001-2019
</metadata>
<g transform="translate(0.000000,512.000000) scale(0.100000,-0.100000)"
fill="#000000" stroke="none">
<path d="M740 5100 c-17 -17 -20 -33 -20 -120 0 -118 12 -140 80 -140 68 0 80
22 80 140 0 118 -12 140 -80 140 -27 0 -47 -7 -60 -20z"/>
<path d="M232 4887 c-15 -16 -22 -36 -22 -62 0 -34 7 -46 63 -102 55 -55 69
-63 101 -63 50 0 86 36 86 86 0 32 -8 46 -63 101 -57 56 -68 63 -104 63 -28 0
-46 -6 -61 -23z"/>
<path d="M1203 4847 c-55 -55 -63 -69 -63 -101 0 -50 36 -86 86 -86 32 0 46 8
101 63 56 57 63 68 63 104 0 52 -31 83 -85 83 -34 0 -46 -7 -102 -63z"/>
<path d="M663 4701 c-105 -39 -180 -107 -231 -211 -25 -50 -27 -65 -27 -170 0
-107 2 -119 29 -175 38 -77 114 -153 191 -191 56 -27 68 -29 175 -29 107 0
119 2 175 29 77 38 153 114 191 191 27 56 29 68 29 175 0 107 -2 119 -29 175
-38 77 -114 153 -191 190 -52 26 -73 30 -160 33 -79 2 -111 -2 -152 -17z m225
-167 c153 -63 191 -267 71 -381 -147 -139 -389 -36 -389 167 0 90 51 169 135
213 39 21 135 21 183 1z"/>
<path d="M20 4380 c-27 -27 -27 -93 0 -120 17 -17 33 -20 120 -20 118 0 140
12 140 80 0 68 -22 80 -140 80 -87 0 -103 -3 -120 -20z"/>
<path d="M1340 4380 c-13 -13 -20 -33 -20 -60 0 -68 22 -80 140 -80 118 0 140
12 140 80 0 68 -22 80 -140 80 -87 0 -103 -3 -120 -20z"/>
<path d="M4370 4375 c-240 -42 -412 -91 -530 -150 -238 -120 -319 -443 -169
-677 31 -48 132 -148 150 -148 5 0 9 -154 9 -376 l0 -377 -52 6 c-56 6 -151
37 -183 61 -18 13 -16 17 35 72 30 33 69 92 89 134 35 73 36 78 36 195 0 168
-15 197 -192 374 -155 153 -186 205 -198 323 -5 48 -13 76 -26 89 -25 25 -90
25 -117 2 -61 -55 -263 -356 -337 -503 -74 -149 -89 -200 -88 -295 3 -132 54
-246 151 -337 102 -96 199 -131 350 -127 l98 3 59 -42 c105 -75 231 -122 329
-122 l46 0 0 -435 0 -434 -42 -12 c-221 -59 -485 -151 -597 -209 -24 -12 -44
-20 -45 -18 -2 2 -56 186 -121 410 l-118 407 50 45 c28 25 58 61 67 80 20 42
21 135 2 180 -33 79 -122 145 -196 146 -19 0 -41 4 -47 8 -7 4 -26 53 -42 107
-16 55 -37 105 -47 112 -21 15 -78 17 -103 3 -36 -19 -43 -59 -22 -132 22 -81
23 -80 -85 -47 -137 42 -261 125 -300 202 -8 15 -18 58 -23 96 -5 39 -20 95
-34 125 -65 142 -245 246 -425 246 -62 0 -83 -4 -118 -25 l-43 -25 -63 21
c-48 16 -96 23 -203 27 -132 4 -143 3 -190 -19 -68 -32 -131 -97 -165 -172
-37 -77 -55 -193 -39 -249 9 -36 7 -48 -15 -97 -14 -32 -32 -86 -40 -122 -21
-87 -37 -274 -30 -330 6 -45 6 -46 -24 -52 -37 -8 -67 -56 -58 -93 12 -47 41
-64 106 -64 57 0 64 -3 118 -47 85 -69 197 -113 291 -113 l44 0 -6 -147 c-15
-373 -99 -612 -292 -833 -73 -83 -97 -136 -98 -215 l-1 -61 -115 -60 c-251
-128 -489 -295 -663 -464 -94 -91 -98 -97 -98 -137 0 -30 6 -49 20 -63 20 -20
33 -20 2540 -20 2507 0 2520 0 2540 20 20 20 20 33 20 860 0 827 0 840 -20
860 -18 18 -33 20 -142 20 -227 0 -731 -58 -935 -107 -23 -5 -23 -4 -23 91 l0
96 45 0 c103 0 257 57 342 126 l43 35 128 2 129 2 85 42 c105 52 175 124 226
231 30 63 36 87 40 165 4 81 1 102 -22 172 -47 139 -166 342 -329 560 -74 99
-82 105 -129 105 -63 0 -81 -27 -92 -139 -9 -92 -43 -144 -185 -285 -145 -144
-184 -203 -201 -308 -16 -104 8 -228 62 -317 12 -20 45 -60 72 -89 47 -50 48
-53 30 -67 -33 -25 -127 -57 -186 -62 l-58 -6 0 660 0 661 103 4 c93 3 109 7
177 39 86 42 147 91 191 155 57 83 62 110 68 349 7 248 12 266 90 360 49 60
55 108 18 143 -31 29 -98 28 -277 -3z m22 -207 c-11 -32 -17 -101 -22 -263 -6
-243 -9 -254 -76 -319 -57 -56 -117 -79 -204 -80 -74 -1 -75 -1 -72 24 4 41
56 142 101 195 60 72 56 141 -10 164 -23 8 -38 7 -62 -3 -54 -22 -139 -141
-176 -246 l-18 -52 -22 31 c-90 126 -85 283 13 398 49 59 206 119 438 168 62
13 116 24 119 24 4 1 0 -18 -9 -41z m-1132 -595 c14 -29 79 -103 161 -184 156
-157 174 -187 167 -291 -2 -39 -13 -82 -28 -112 -24 -50 -91 -126 -111 -126
-21 0 -70 130 -81 217 -13 99 -29 123 -82 123 -49 0 -65 -8 -82 -42 -13 -26
-14 -43 -4 -116 6 -48 24 -119 40 -159 l28 -73 -32 0 c-45 0 -148 54 -185 96
-67 76 -97 173 -79 257 5 26 33 94 62 150 55 109 180 307 193 307 5 0 19 -21
33 -47z m-2074 -444 c-30 -32 -66 -83 -81 -114 -19 -38 -33 -55 -46 -55 -21 0
-21 5 3 97 20 79 103 150 160 135 15 -3 8 -16 -36 -63z m629 40 c112 -42 161
-104 179 -228 9 -59 23 -106 42 -141 37 -67 136 -158 222 -203 133 -69 322
-117 464 -117 86 0 135 -19 144 -56 9 -34 -3 -53 -49 -77 -72 -37 -328 -17
-502 39 -99 33 -146 56 -211 105 -61 45 -91 89 -100 148 -9 57 -34 81 -82 81
-51 0 -75 -19 -101 -80 -34 -78 -51 -186 -61 -388 -9 -156 -8 -187 5 -212 16
-31 62 -50 125 -50 91 -1 230 -59 336 -143 162 -128 298 -352 359 -591 l23
-91 -36 -7 c-21 -4 -52 -7 -69 -7 -28 -1 -33 3 -38 27 -4 15 -13 54 -22 87
-85 332 -326 574 -574 575 -100 0 -110 -11 -120 -141 -21 -265 -128 -492 -323
-684 -86 -86 -96 -92 -181 -122 -49 -17 -114 -40 -142 -52 -30 -12 -53 -16
-53 -10 0 5 27 41 59 79 119 138 196 275 250 444 53 164 71 300 81 601 15 443
30 614 71 820 26 136 84 313 119 369 29 45 31 46 79 46 28 0 76 -9 106 -21z
m-405 -105 c-54 -140 -110 -488 -126 -771 l-7 -123 -38 0 c-46 0 -133 31 -177
63 l-31 24 30 29 c69 66 138 257 139 384 1 172 57 309 159 386 53 41 64 42 51
8z m3274 -187 c77 -117 154 -264 176 -331 50 -156 -78 -350 -247 -373 -43 -6
-46 -5 -38 13 44 105 58 157 62 240 5 84 4 93 -16 113 -21 21 -71 28 -106 15
-24 -10 -45 -58 -45 -106 0 -24 -5 -61 -11 -83 -15 -54 -58 -145 -69 -145 -23
0 -83 68 -111 126 -38 78 -44 165 -14 229 11 23 75 95 150 170 92 91 140 147
160 187 17 32 31 58 33 58 1 0 36 -51 76 -113z m-2549 -603 c148 -70 343 -114
510 -114 l91 0 128 -436 c70 -240 125 -437 124 -438 -2 -1 -42 -27 -90 -59
-48 -31 -95 -57 -103 -57 -8 0 -17 12 -21 28 -77 352 -222 609 -441 783 -93
73 -230 143 -327 164 l-76 17 0 58 c0 31 3 84 6 118 l7 60 51 -40 c28 -23 92
-60 141 -84z m-129 -649 c137 -81 242 -250 288 -466 l6 -26 -132 -18 c-73 -9
-214 -34 -315 -54 -100 -20 -179 -32 -175 -27 4 6 23 36 43 66 90 136 165 329
189 488 7 44 17 72 24 72 7 0 39 -16 72 -35z m2954 -201 c0 -154 -1 -166 -17
-158 -10 4 -82 9 -161 12 -127 4 -150 2 -211 -18 -37 -12 -80 -30 -96 -40
l-28 -19 -46 41 c-25 22 -80 57 -121 77 -68 32 -85 36 -177 39 l-103 4 0 54
c0 53 0 53 38 63 160 42 662 107 850 110 l72 1 0 -166z m-1130 -64 c0 -38 -4
-70 -10 -70 -5 0 -39 -27 -75 -61 -43 -41 -75 -82 -96 -124 -29 -59 -34 -64
-76 -75 -156 -39 -271 -171 -295 -341 -9 -67 -14 -78 -53 -119 -89 -93 -161
-240 -181 -367 l-7 -43 -313 0 -314 0 0 29 c0 47 28 183 54 257 86 252 273
473 548 649 27 17 28 17 37 -8 22 -57 90 -74 137 -34 28 25 34 57 20 114 -7
31 -6 33 43 57 109 56 492 192 574 205 4 0 7 -30 7 -69z m355 -187 c47 -15
119 -78 182 -156 33 -41 78 -37 141 13 84 68 129 82 247 81 119 -1 174 -15
192 -51 10 -19 13 -130 13 -462 l0 -438 -875 0 c-481 0 -875 4 -875 8 0 5 7
33 16 63 27 91 75 170 151 246 l72 72 -2 73 c-1 63 3 80 28 126 44 81 101 118
196 126 54 5 99 35 99 65 0 27 46 116 79 154 18 20 60 50 93 67 50 24 74 30
128 30 36 0 88 -7 115 -17z m-1630 -235 c-154 -171 -261 -390 -300 -612 -8
-49 -15 -106 -15 -127 l0 -39 -976 0 -976 0 44 36 c250 209 640 418 1033 554
352 121 830 215 1218 239 14 1 7 -12 -28 -51z"/>
<path d="M1865 4142 c-109 -38 -204 -131 -246 -239 -16 -43 -22 -80 -22 -143
0 -143 62 -259 177 -336 71 -47 132 -64 228 -64 229 0 398 170 398 400 0 176
-103 324 -266 381 -70 25 -199 25 -269 1z m223 -168 c85 -35 142 -120 142
-214 0 -133 -101 -230 -238 -230 -122 0 -225 105 -225 230 0 125 103 230 225
230 32 0 75 -7 96 -16z"/>
<path d="M273 3917 c-56 -57 -63 -68 -63 -104 0 -52 31 -83 85 -83 34 0 46 7
102 63 55 55 63 69 63 101 0 50 -36 86 -86 86 -32 0 -46 -8 -101 -63z"/>
<path d="M1165 3955 c-18 -17 -25 -35 -25 -61 0 -32 8 -46 63 -101 57 -56 68
-63 104 -63 52 0 83 31 83 85 0 34 -7 46 -63 102 -55 55 -69 63 -101 63 -26 0
-44 -7 -61 -25z"/>
<path d="M740 3780 c-17 -17 -20 -33 -20 -120 0 -118 12 -140 80 -140 68 0 80
22 80 140 0 118 -12 140 -80 140 -27 0 -47 -7 -60 -20z"/>
</g>
</svg>
