<?xml version="1.0" standalone="no"?>
<!DOCTYPE svg PUBLIC "-//W3C//DTD SVG 20010904//EN"
 "http://www.w3.org/TR/2001/REC-SVG-20010904/DTD/svg10.dtd">
<svg version="1.0" xmlns="http://www.w3.org/2000/svg"
 width="512.000000pt" height="512.000000pt" viewBox="0 0 512.000000 512.000000"
 preserveAspectRatio="xMidYMid meet">
<metadata>
Created by potrace 1.16, written by Peter Selinger 2001-2019
</metadata>
<g transform="translate(0.000000,512.000000) scale(0.100000,-0.100000)"
fill="#000000" stroke="none">
<path d="M2501 5094 c-19 -24 -21 -40 -21 -164 0 -164 9 -185 80 -185 71 0 80
21 80 185 0 124 -2 140 -21 164 -16 20 -29 26 -59 26 -30 0 -43 -6 -59 -26z"/>
<path d="M1443 4814 c-20 -20 -24 -32 -20 -59 7 -41 123 -242 148 -255 53 -29
119 8 119 66 0 33 -108 228 -141 257 -31 25 -75 22 -106 -9z"/>
<path d="M3571 4823 c-31 -27 -141 -224 -141 -254 0 -40 36 -79 71 -79 17 0
38 4 48 10 25 13 141 214 148 255 11 66 -74 111 -126 68z"/>
<path d="M2405 4630 c-748 -69 -1368 -626 -1522 -1369 -22 -108 -26 -153 -27
-316 -1 -204 9 -297 51 -455 104 -391 314 -700 647 -949 104 -78 140 -116 170
-181 19 -41 21 -68 26 -315 5 -265 5 -271 30 -315 14 -24 44 -58 67 -75 l42
-30 0 -76 c1 -42 8 -96 16 -120 27 -75 100 -135 188 -154 18 -3 31 -15 38 -33
43 -116 107 -189 195 -221 48 -18 78 -21 229 -21 151 0 182 3 229 20 79 30
139 88 182 176 29 58 43 76 63 80 86 18 159 79 186 153 8 24 15 78 16 120 l0
76 42 30 c23 17 53 51 67 75 25 44 25 50 30 320 7 356 3 347 195 490 129 95
302 269 388 390 124 174 239 436 281 640 67 327 36 701 -84 990 -67 163 -202
389 -253 425 -32 22 -65 18 -92 -11 -38 -41 -31 -69 36 -169 115 -171 197
-363 241 -565 32 -148 36 -409 10 -566 -71 -415 -282 -753 -633 -1015 -63 -48
-130 -105 -147 -127 -28 -35 -67 -111 -85 -164 -5 -13 -24 -17 -117 -20 -108
-3 -113 -4 -136 -31 -37 -44 -29 -88 23 -115 12 -7 64 -12 117 -12 l96 0 0
-50 0 -50 -650 0 -650 0 0 50 0 50 394 0 c383 0 394 1 420 21 28 22 35 64 16
99 -19 36 -61 40 -460 40 l-387 0 -12 42 c-29 97 -87 168 -226 273 -180 137
-278 240 -382 395 -186 280 -272 584 -260 919 9 242 51 411 156 626 77 157
162 276 291 406 238 239 513 387 831 445 135 25 402 25 534 0 254 -48 465
-139 671 -291 64 -47 97 -65 119 -65 43 0 75 32 75 75 0 41 -47 86 -190 180
-249 164 -506 251 -814 275 -140 11 -161 11 -281 0z m805 -3755 c0 -57 -3 -69
-25 -90 l-24 -25 -601 0 -601 0 -24 25 c-22 21 -25 33 -25 90 l0 65 650 0 650
0 0 -65z m-140 -334 c0 -63 -2 -71 -26 -90 -26 -21 -37 -21 -484 -21 -447 0
-458 0 -484 21 -24 19 -26 27 -26 90 l0 69 510 0 510 0 0 -69z m-249 -290
c-16 -29 -78 -80 -109 -88 -15 -5 -90 -8 -167 -8 -128 0 -143 2 -177 23 -20
12 -46 38 -57 57 l-20 35 270 0 c260 0 269 -1 260 -19z"/>
<path d="M672 4044 c-24 -16 -30 -70 -12 -103 9 -18 179 -120 233 -140 51 -20
107 21 107 77 0 33 -31 61 -136 121 -112 64 -151 74 -192 45z"/>
<path d="M4255 4000 c-103 -61 -135 -89 -135 -121 0 -36 23 -68 57 -80 32 -10
40 -7 146 51 62 34 120 71 130 82 25 30 23 93 -5 112 -41 29 -86 18 -193 -44z"/>
<path d="M3355 3703 c-126 -19 -344 -100 -391 -144 -49 -46 -19 -129 46 -129
17 0 56 13 88 29 31 16 95 41 142 56 72 23 104 28 204 29 116 1 119 0 137 -24
11 -15 23 -59 30 -113 42 -327 -147 -709 -455 -919 -138 -95 -324 -158 -463
-158 l-72 0 20 48 c11 26 43 86 70 134 58 101 63 104 217 114 70 5 99 12 118
26 30 24 32 66 4 101 -18 23 -29 26 -92 29 l-71 3 103 109 c116 121 210 201
317 269 90 58 113 80 113 111 0 37 -39 77 -76 78 -35 1 -150 -70 -269 -166
l-70 -56 -8 34 c-17 70 -90 93 -134 42 -21 -24 -22 -33 -16 -126 l6 -100 -60
-72 c-76 -92 -177 -242 -226 -336 -21 -39 -41 -72 -44 -72 -12 0 8 197 28 280
27 110 102 265 179 369 34 45 65 93 70 105 11 29 -7 66 -41 85 -40 22 -77 1
-140 -82 -156 -203 -235 -410 -246 -642 -6 -132 7 -244 36 -310 17 -40 17 -41
-6 -110 -35 -107 -32 -101 -48 -78 -12 17 -12 28 -4 53 18 50 6 184 -25 274
-41 120 -98 210 -195 307 -97 97 -187 154 -306 196 -72 25 -93 28 -215 28
-131 0 -137 -1 -183 -28 -66 -39 -86 -85 -87 -192 0 -100 27 -202 83 -310 55
-107 199 -254 307 -314 131 -72 215 -94 365 -95 l129 -2 43 -91 c43 -91 44
-92 33 -155 -14 -91 -13 -106 15 -133 29 -30 64 -32 97 -5 20 15 27 34 37 97
15 93 52 250 84 351 l23 74 129 3 c139 3 206 18 351 75 302 121 562 397 675
720 53 148 72 344 49 487 -20 129 -52 182 -135 226 -32 17 -60 21 -140 23 -55
1 -113 0 -130 -3z m-1649 -884 c76 -13 206 -76 276 -132 84 -69 157 -174 194
-280 14 -38 12 -38 -68 43 -126 127 -321 260 -380 260 -56 0 -95 -67 -65 -113
8 -13 42 -37 75 -55 72 -39 168 -108 235 -171 47 -44 147 -163 147 -175 0 -16
-126 -4 -198 19 -238 75 -424 308 -426 535 -1 64 -1 65 29 71 48 11 117 10
181 -2z"/>
<path d="M414 3001 c-28 -12 -54 -49 -54 -77 0 -12 9 -33 21 -48 l20 -26 150
0 c136 0 151 2 169 20 30 30 30 83 -1 115 -17 18 -35 20 -152 22 -72 2 -142
-1 -153 -6z"/>
<path d="M4434 3003 c-56 -11 -76 -91 -34 -133 18 -18 33 -20 169 -20 l150 0
20 26 c28 35 26 67 -3 101 -24 28 -25 28 -153 30 -70 0 -138 -1 -149 -4z"/>
<path d="M890 2053 c-24 -9 -203 -114 -222 -131 -25 -21 -24 -86 2 -112 34
-34 76 -25 190 40 58 34 113 70 123 82 49 58 -19 148 -93 121z"/>
<path d="M4164 2049 c-42 -21 -56 -83 -26 -117 30 -37 224 -142 259 -142 45 0
73 30 73 78 0 47 -6 52 -132 126 -103 60 -140 72 -174 55z"/>
<path d="M1547 1328 c-39 -53 -127 -214 -127 -232 0 -28 29 -74 50 -81 33 -11
78 5 98 33 54 78 122 212 122 241 0 44 -31 71 -79 71 -33 0 -44 -5 -64 -32z"/>
<path d="M3450 1340 c-34 -34 -25 -73 43 -192 34 -61 72 -117 84 -125 49 -32
123 8 123 66 0 24 -81 177 -127 239 -20 27 -31 32 -64 32 -26 0 -46 -7 -59
-20z"/>
</g>
</svg>
