<?xml version="1.0" standalone="no"?>
<!DOCTYPE svg PUBLIC "-//W3C//DTD SVG 20010904//EN"
 "http://www.w3.org/TR/2001/REC-SVG-20010904/DTD/svg10.dtd">
<svg version="1.0" xmlns="http://www.w3.org/2000/svg"
 width="512.000000pt" height="512.000000pt" viewBox="0 0 512.000000 512.000000"
 preserveAspectRatio="xMidYMid meet">
<metadata>
Created by potrace 1.16, written by Peter Selinger 2001-2019
</metadata>
<g transform="translate(0.000000,512.000000) scale(0.100000,-0.100000)"
fill="#000000" stroke="none">
<path d="M312 5016 c-143 -54 -242 -156 -292 -301 -19 -56 -20 -84 -20 -825 0
-741 1 -769 20 -825 52 -151 162 -260 309 -305 54 -17 93 -20 267 -20 l204 0
0 -777 0 -778 24 -50 c29 -60 76 -107 136 -134 44 -20 63 -21 674 -21 l629 0
-6 -27 c-3 -16 -20 -117 -38 -225 l-32 -198 -94 0 c-134 0 -198 -32 -244 -122
-26 -51 -26 -155 0 -207 26 -49 81 -97 128 -111 26 -7 240 -10 687 -8 l649 3
20 26 c17 24 18 31 7 63 -6 20 -20 41 -30 46 -12 6 -251 10 -650 10 l-631 0
-24 25 c-32 31 -32 69 0 101 l24 24 935 -2 c872 -3 936 -4 953 -20 22 -23 22
-83 0 -106 -15 -14 -43 -18 -175 -22 -86 -3 -163 -9 -169 -13 -7 -4 -18 -26
-24 -48 -11 -36 -10 -41 11 -64 23 -25 25 -25 194 -25 189 0 224 9 278 66 78
84 78 234 0 318 -47 50 -96 66 -203 66 l-96 0 -32 198 c-18 108 -35 209 -38
225 l-5 27 628 0 629 0 50 24 c60 29 107 76 134 136 20 45 21 58 21 1585 0
1527 -1 1540 -21 1585 -27 60 -74 107 -134 136 l-50 24 -1307 0 -1308 0 0 93
c0 196 -95 350 -270 435 l-75 37 -790 2 -790 2 -63 -23z m1650 -159 c80 -39
142 -111 168 -194 19 -63 20 -92 20 -773 0 -690 -1 -710 -21 -776 -17 -56 -31
-77 -78 -125 -49 -48 -69 -61 -127 -79 -69 -20 -82 -21 -799 -18 l-730 3 -56
28 c-66 32 -132 99 -162 165 -22 47 -22 49 -22 802 0 750 0 755 21 801 26 56
82 120 132 151 76 47 83 47 862 45 l735 -2 57 -28z m2708 -912 l0 -75 -1060 0
-1061 0 -24 -25 c-14 -13 -25 -36 -25 -50 0 -14 11 -37 25 -50 l24 -25 1061 0
1060 0 0 -870 0 -870 -1435 0 -1435 0 0 380 0 380 35 0 c207 0 411 169 454
378 7 34 11 207 11 477 l0 425 1185 0 1185 0 0 -75z m-3020 -1585 l0 -380
-200 0 -200 0 0 380 0 380 200 0 200 0 0 -380z m3320 -977 c0 -170 -11 -206
-70 -235 -33 -17 -147 -18 -1945 -18 -1877 0 -1911 0 -1942 20 -55 33 -63 61
-63 230 l0 150 2010 0 2010 0 0 -147z m-1470 -410 c0 -5 16 -100 35 -213 19
-113 35 -211 35 -217 0 -10 -129 -13 -610 -13 -552 0 -610 2 -610 16 0 15 54
348 66 407 l6 27 539 0 c296 0 539 -3 539 -7z"/>
<path d="M1045 4672 c-45 -28 -58 -48 -70 -110 -10 -47 -17 -61 -45 -79 -44
-31 -91 -30 -129 3 -70 59 -138 50 -217 -30 -80 -79 -89 -147 -30 -217 33 -38
34 -85 4 -129 -19 -28 -33 -35 -80 -45 -95 -19 -128 -64 -128 -175 0 -111 33
-156 128 -175 47 -10 61 -17 80 -45 30 -44 29 -91 -4 -129 -59 -70 -50 -138
30 -217 79 -80 147 -89 217 -30 38 33 85 34 129 4 28 -19 35 -33 45 -80 19
-95 64 -128 175 -128 111 0 156 33 175 128 10 47 17 61 45 80 44 30 91 29 129
-4 70 -59 138 -50 217 30 80 79 89 147 30 217 -33 38 -34 85 -3 129 18 28 32
35 80 45 43 9 67 20 90 44 32 31 32 32 32 131 0 99 0 100 -32 131 -23 24 -47
35 -90 44 -48 10 -62 17 -80 45 -31 44 -30 91 3 129 59 70 50 138 -30 217 -79
80 -147 89 -217 30 -38 -33 -85 -34 -129 -3 -28 18 -35 32 -45 79 -19 96 -64
128 -177 128 -53 0 -81 -5 -103 -18z m138 -173 c13 -99 121 -180 246 -187 56
-3 73 0 115 23 42 22 51 24 63 12 12 -12 10 -21 -12 -63 -72 -133 23 -342 164
-361 37 -5 41 -8 41 -33 0 -25 -4 -28 -41 -33 -99 -13 -180 -121 -187 -246 -3
-56 0 -73 23 -115 22 -42 24 -51 12 -63 -12 -12 -21 -10 -63 12 -133 72 -342
-23 -361 -163 -5 -38 -8 -42 -33 -42 -25 0 -28 4 -33 41 -13 99 -121 180 -246
187 -56 3 -73 0 -115 -23 -42 -22 -51 -24 -63 -12 -12 12 -10 21 12 63 72 133
-23 342 -163 361 -38 5 -42 8 -42 33 0 25 4 28 42 33 99 13 179 119 186 246 3
56 0 73 -23 115 -22 42 -24 51 -12 63 12 12 21 10 63 -12 133 -72 342 23 361
164 5 37 8 41 33 41 25 0 28 -4 33 -41z"/>
<path d="M1050 4194 c-192 -70 -273 -277 -179 -455 36 -67 68 -98 143 -137 43
-22 64 -26 136 -26 72 0 93 4 136 26 75 40 107 70 145 140 31 58 34 70 33 148
0 72 -4 93 -26 136 -39 75 -70 107 -138 143 -76 41 -179 51 -250 25z m166
-153 c48 -22 80 -59 96 -112 23 -79 -33 -174 -120 -200 -82 -24 -176 31 -202
119 -30 100 52 209 160 211 14 0 43 -8 66 -18z"/>
<path d="M2762 3350 c-30 -28 -30 -82 0 -110 21 -19 33 -20 408 -20 375 0 387
1 408 20 14 14 22 33 22 55 0 22 -8 41 -22 55 -21 19 -33 20 -408 20 -375 0
-387 -1 -408 -20z"/>
<path d="M3782 3350 c-30 -28 -30 -82 0 -110 20 -19 34 -20 233 -20 199 0 213
1 233 20 14 14 22 33 22 55 0 22 -8 41 -22 55 -20 19 -34 20 -233 20 -199 0
-213 -1 -233 -20z"/>
<path d="M3182 3050 c-30 -28 -30 -82 0 -110 20 -19 34 -20 198 -20 164 0 178
1 198 20 14 14 22 33 22 55 0 22 -8 41 -22 55 -20 19 -34 20 -198 20 -164 0
-178 -1 -198 -20z"/>
<path d="M3782 3050 c-30 -28 -30 -82 0 -110 20 -19 34 -20 233 -20 199 0 213
1 233 20 14 14 22 33 22 55 0 22 -8 41 -22 55 -20 19 -34 20 -233 20 -199 0
-213 -1 -233 -20z"/>
<path d="M3182 2750 c-30 -28 -30 -82 0 -110 20 -19 34 -20 198 -20 164 0 178
1 198 20 14 14 22 33 22 55 0 22 -8 41 -22 55 -20 19 -34 20 -198 20 -164 0
-178 -1 -198 -20z"/>
<path d="M3782 2750 c-30 -28 -30 -82 0 -110 20 -19 34 -20 233 -20 199 0 213
1 233 20 14 14 22 33 22 55 0 22 -8 41 -22 55 -20 19 -34 20 -233 20 -199 0
-213 -1 -233 -20z"/>
<path d="M2762 2450 c-30 -28 -30 -82 0 -110 21 -19 33 -20 408 -20 375 0 387
1 408 20 14 14 22 33 22 55 0 22 -8 41 -22 55 -21 19 -33 20 -408 20 -375 0
-387 -1 -408 -20z"/>
<path d="M3782 2450 c-30 -28 -30 -82 0 -110 20 -19 34 -20 233 -20 199 0 213
1 233 20 14 14 22 33 22 55 0 22 -8 41 -22 55 -20 19 -34 20 -233 20 -199 0
-213 -1 -233 -20z"/>
</g>
</svg>
