<?xml version="1.0" standalone="no"?>
<!DOCTYPE svg PUBLIC "-//W3C//DTD SVG 20010904//EN"
 "http://www.w3.org/TR/2001/REC-SVG-20010904/DTD/svg10.dtd">
<svg version="1.0" xmlns="http://www.w3.org/2000/svg"
 width="512.000000pt" height="512.000000pt" viewBox="0 0 512.000000 512.000000"
 preserveAspectRatio="xMidYMid meet">
<metadata>
Created by potrace 1.16, written by Peter Selinger 2001-2019
</metadata>
<g transform="translate(0.000000,512.000000) scale(0.100000,-0.100000)"
fill="#000000" stroke="none">
<path d="M3773 5080 c-210 -173 -335 -231 -701 -324 -351 -90 -484 -149 -612
-273 l-85 -83 -75 25 c-41 13 -154 44 -251 69 -272 69 -378 116 -524 232 -60
48 -73 54 -115 54 -33 0 -55 -6 -75 -22 -49 -38 -55 -69 -55 -288 l0 -200 -25
0 c-13 0 -272 -88 -575 -196 -493 -177 -555 -201 -594 -236 -25 -21 -54 -58
-65 -81 l-21 -43 0 -1731 c0 -1907 -5 -1763 62 -1839 46 -52 119 -84 191 -84
50 0 125 24 535 170 262 93 483 170 492 170 8 0 285 -90 615 -200 532 -177
607 -200 664 -200 58 0 133 23 666 200 330 110 608 200 616 200 9 0 231 -76
493 -170 531 -189 543 -192 642 -146 59 27 116 90 132 145 9 28 12 482 12
1760 0 1467 -2 1727 -14 1756 -24 57 -92 122 -150 144 -29 11 -251 90 -492
176 -241 87 -452 162 -467 167 -28 10 -28 12 -21 62 11 76 7 99 -21 124 -36
31 -80 29 -114 -5 -22 -23 -31 -49 -49 -141 -72 -358 -232 -637 -464 -808 -84
-62 -145 -91 -236 -115 -224 -57 -465 30 -598 218 -176 246 -117 618 131 825
86 71 272 143 500 193 235 51 440 134 609 245 44 29 86 54 93 57 10 4 13 -19
13 -109 0 -128 8 -149 64 -168 49 -16 91 7 106 58 16 58 2 327 -20 379 -22 50
-61 73 -124 73 -37 0 -52 -7 -93 -40z m-2256 -567 c139 -89 309 -155 527 -203
152 -35 241 -63 241 -76 -1 -5 -13 -47 -29 -94 -53 -159 -47 -376 15 -533 22
-57 80 -150 117 -189 l25 -28 -45 -20 c-241 -106 -528 15 -715 302 -85 132
-150 312 -177 500 -17 114 -33 378 -23 378 4 0 32 -16 64 -37z m-212 -421 c6
-4 19 -41 28 -82 10 -41 20 -84 23 -95 5 -19 1 -20 -58 -17 -59 3 -86 -5 -448
-133 -212 -76 -401 -146 -421 -156 -21 -10 -48 -35 -60 -56 l-24 -38 -3 -1420
c-2 -990 0 -1431 8 -1457 23 -79 110 -138 182 -124 18 4 172 57 343 118 l310
111 95 1 95 1 573 -193 c378 -126 588 -192 615 -192 28 0 231 64 612 192 l570
193 95 -1 95 0 310 -112 c171 -61 325 -114 343 -118 72 -14 159 45 182 124 8
26 10 467 8 1457 l-3 1420 -24 38 c-12 21 -39 46 -60 56 -43 22 -761 280 -803
288 -16 3 -27 11 -25 17 2 6 15 40 27 76 13 36 26 69 30 73 4 4 227 -71 496
-167 389 -139 494 -180 512 -201 l22 -26 0 -1689 0 -1689 -24 -27 c-17 -21
-32 -28 -57 -28 -19 1 -245 77 -504 169 -391 141 -479 169 -525 169 -45 0
-166 -37 -667 -204 l-613 -205 -612 205 c-502 167 -623 204 -668 204 -46 0
-134 -28 -525 -169 -259 -93 -485 -169 -504 -169 -24 0 -40 7 -57 28 l-24 27
0 1689 0 1689 23 26 c17 20 123 62 507 199 577 206 572 204 585 205 6 0 15 -3
20 -7z m109 -396 c23 -10 42 -31 66 -72 141 -251 436 -464 642 -464 21 0 38
-5 38 -11 0 -6 -10 -43 -22 -82 -31 -106 -104 -168 -193 -166 -11 0 -144 37
-295 83 l-275 84 -3 321 c-1 176 0 321 3 321 3 0 21 -6 39 -14z m-224 -310 c0
-291 -1 -315 -17 -320 -88 -24 -147 -12 -204 42 -30 29 -57 80 -127 239 l-90
202 72 26 c39 14 132 47 206 75 74 27 141 49 148 49 9 1 12 -68 12 -313z
m3085 196 l330 -118 3 -655 2 -654 -26 -125 c-67 -320 -230 -707 -413 -980
-126 -188 -105 -171 -179 -152 l-62 17 0 713 c0 675 1 713 18 708 9 -3 43 -12
75 -21 210 -60 395 154 303 351 -37 81 -91 119 -226 160 -63 19 -126 39 -140
43 l-25 8 -3 411 c-1 227 1 412 5 412 5 0 157 -53 338 -118z m-525 -297 l0
-385 -225 0 c-244 0 -266 4 -299 54 -29 45 -20 89 38 197 47 88 60 105 109
137 132 87 261 215 339 335 17 26 33 47 35 47 2 0 3 -173 3 -385z m-3096 -978
c187 -124 277 -157 444 -157 l92 0 0 -619 0 -619 -47 -11 c-43 -11 -146 -46
-520 -180 l-113 -40 0 860 c0 685 3 859 13 853 6 -4 66 -43 131 -87z m3096
-655 l0 -738 -72 -19 c-40 -11 -79 -21 -85 -23 -10 -3 -13 64 -13 309 0 212
-4 324 -12 351 -15 52 -88 132 -137 151 -22 9 -76 21 -120 26 -135 17 -223 74
-281 183 -83 155 -33 340 117 436 82 52 132 61 381 61 l222 1 0 -738z m-2149
518 c125 -24 265 -122 322 -228 14 -26 37 -90 52 -142 40 -144 85 -221 184
-320 86 -85 143 -121 256 -161 l50 -17 3 -371 c1 -204 0 -371 -3 -371 -3 0
-240 79 -527 175 -287 96 -532 175 -545 175 l-23 0 0 629 0 630 43 4 c86 7
136 7 188 -3z m1168 -927 c99 -33 195 -125 230 -219 23 -60 57 -322 44 -334
-8 -8 -371 -130 -386 -130 -4 0 -7 160 -7 355 l0 356 38 -7 c20 -4 57 -13 81
-21z"/>
</g>
</svg>
