<?xml version="1.0" standalone="no"?>
<!DOCTYPE svg PUBLIC "-//W3C//DTD SVG 20010904//EN"
 "http://www.w3.org/TR/2001/REC-SVG-20010904/DTD/svg10.dtd">
<svg version="1.0" xmlns="http://www.w3.org/2000/svg"
 width="512.000000pt" height="512.000000pt" viewBox="0 0 512.000000 512.000000"
 preserveAspectRatio="xMidYMid meet">
<metadata>
Created by potrace 1.16, written by Peter Selinger 2001-2019
</metadata>
<g transform="translate(0.000000,512.000000) scale(0.100000,-0.100000)"
fill="#000000" stroke="none">
<path d="M940 5098 c-18 -13 -43 -36 -54 -51 -21 -28 -21 -39 -24 -507 l-3
-478 -44 -28 c-105 -66 -142 -202 -86 -313 21 -40 95 -111 117 -111 8 0 13
-28 16 -91 3 -81 6 -93 27 -110 31 -25 85 -25 111 1 17 17 20 33 20 105 l0 85
39 19 c44 23 88 71 109 121 20 49 18 139 -5 191 -20 45 -76 102 -119 121 l-24
11 0 289 0 288 200 0 200 0 0 -554 0 -554 -27 -7 c-42 -10 -91 -52 -114 -97
-19 -37 -20 -54 -17 -261 3 -212 4 -224 28 -272 40 -81 112 -146 206 -185 l81
-33 16 -96 c30 -183 106 -348 226 -486 33 -38 123 -122 200 -185 l141 -115 -3
-109 -2 -109 -470 -108 c-421 -97 -479 -113 -553 -150 -142 -72 -265 -205
-323 -351 -32 -80 -68 -268 -57 -297 12 -33 37 -50 74 -51 44 0 71 30 84 97
35 179 69 258 150 346 81 89 171 138 312 170 l66 15 27 -85 c55 -177 169 -358
306 -488 173 -163 426 -282 645 -302 l64 -6 0 -108 0 -109 -460 0 -460 0 0
131 c0 76 -5 139 -11 152 -17 32 -130 146 -162 163 -57 30 -117 -7 -117 -71 0
-24 13 -44 65 -95 l65 -64 0 -108 0 -108 -281 0 c-158 0 -288 4 -298 10 -17 9
-17 14 2 111 19 101 19 102 0 128 -34 44 -102 47 -129 6 -8 -13 -24 -70 -35
-128 -23 -120 -17 -164 27 -217 55 -65 -92 -60 1874 -60 1966 0 1819 -5 1874
60 44 53 50 97 27 217 -11 58 -27 115 -35 128 -27 41 -95 38 -129 -6 -19 -26
-19 -27 0 -128 19 -97 19 -102 2 -111 -10 -6 -140 -10 -298 -10 l-281 0 0 108
0 108 65 64 c52 51 65 71 65 95 0 64 -60 101 -117 71 -32 -17 -145 -131 -162
-163 -6 -13 -11 -76 -11 -152 l0 -131 -460 0 -460 0 0 109 0 108 64 6 c219 21
473 140 648 305 134 127 249 310 303 485 l27 85 66 -15 c141 -32 231 -81 312
-170 81 -88 115 -167 150 -346 13 -67 40 -97 85 -97 46 0 75 32 75 83 0 55
-32 197 -60 267 -55 139 -181 277 -318 347 -85 44 -107 49 -707 187 l-320 73
-2 109 -3 109 141 115 c77 63 161 140 188 170 135 155 213 321 241 518 12 81
12 81 49 93 114 36 196 103 248 201 28 53 28 54 31 275 3 207 2 224 -17 261
-23 45 -72 87 -113 97 l-28 7 0 554 0 554 212 0 c194 0 215 2 254 21 26 12 53
36 66 57 21 34 23 49 23 169 0 146 -6 164 -75 211 l-33 22 -538 0 -538 0 -21
-22 c-24 -26 -26 -74 -4 -103 14 -19 30 -20 532 -25 l517 -5 3 -82 3 -83
-1541 0 -1541 0 3 83 3 82 887 3 887 2 20 26 c27 34 27 64 0 98 l-20 26 -913
0 -913 0 -33 -22z m2600 -748 l0 -290 -980 0 -980 0 0 290 0 290 980 0 980 0
0 -290z m-2546 -461 c35 -28 36 -80 1 -114 -33 -33 -70 -32 -106 4 -31 32 -35
50 -17 84 26 50 77 61 122 26z m1401 -16 c-33 -52 -70 -85 -120 -109 -46 -22
-62 -24 -221 -24 -207 0 -255 -11 -323 -75 -25 -24 -59 -62 -76 -84 -19 -26
-38 -41 -52 -41 l-23 0 0 180 0 180 416 0 416 0 -17 -27z m1145 -153 l0 -180
-22 0 c-15 0 -34 15 -53 41 -16 22 -51 60 -76 84 -68 64 -116 75 -323 75 -159
0 -175 2 -221 24 -50 24 -87 57 -120 109 l-17 27 416 0 416 0 0 -180z m-947
55 c42 -66 129 -140 195 -166 50 -20 81 -24 258 -28 226 -7 208 -1 286 -95
l49 -59 -3 -416 c-4 -394 -5 -420 -26 -489 -32 -105 -92 -219 -159 -301 -72
-88 -316 -291 -397 -331 -64 -31 -176 -60 -236 -60 -60 0 -172 29 -236 60 -81
40 -325 243 -397 331 -67 82 -127 196 -159 301 -21 69 -22 95 -26 489 l-3 416
49 59 c78 94 60 88 286 95 177 4 208 8 258 28 66 26 153 100 195 166 15 25 30
45 33 45 3 0 18 -20 33 -45z m-1013 -660 l0 -265 -27 11 c-48 18 -95 60 -114
103 -16 35 -19 67 -19 218 0 205 -4 197 98 198 l62 0 0 -265z m2101 255 c18
-10 19 -23 19 -188 0 -151 -3 -183 -19 -218 -19 -43 -66 -85 -114 -103 l-27
-11 0 265 0 265 61 0 c33 0 69 -5 80 -10z m-1287 -1677 c82 -22 250 -22 334 0
35 9 66 17 68 17 11 0 3 -253 -10 -284 -35 -85 -138 -156 -226 -156 -88 0
-191 71 -226 156 -14 33 -21 284 -8 284 3 0 34 -7 68 -17z m-205 -339 c27 -63
111 -160 165 -189 20 -11 36 -22 36 -25 0 -3 -24 -30 -54 -59 -67 -66 -74 -64
-171 33 -52 52 -82 93 -108 146 -58 120 -58 116 15 133 94 22 92 23 117 -39z
m857 40 c75 -19 74 -14 17 -134 -26 -53 -56 -94 -108 -146 -97 -97 -104 -99
-171 -33 -30 29 -54 56 -54 59 0 3 16 14 36 25 54 29 138 126 165 189 12 31
29 56 36 56 8 0 43 -7 79 -16z m-1182 -86 c3 -18 20 -62 36 -97 65 -138 168
-251 293 -325 35 -20 86 -60 115 -89 l51 -52 -26 -85 c-14 -47 -29 -88 -33
-93 -9 -11 -107 25 -202 75 -229 119 -405 331 -484 580 -9 32 -16 59 -13 61 6
5 220 55 240 56 11 1 19 -10 23 -31z m1534 5 c90 -21 122 -32 122 -43 -1 -8
-15 -54 -34 -101 -85 -226 -250 -415 -458 -524 -98 -51 -198 -89 -208 -78 -4
5 -19 46 -33 93 l-26 85 51 52 c29 29 80 69 115 89 125 74 228 187 293 325 16
35 33 79 36 97 3 17 9 32 13 32 3 0 61 -12 129 -27z m-760 -316 l72 -73 -38
-37 c-37 -36 -40 -37 -112 -37 -72 0 -75 1 -112 37 l-38 37 72 73 c40 40 75
73 78 73 3 0 38 -33 78 -73z m-5 -384 l24 -78 -21 -7 c-27 -8 -125 -8 -152 0
l-21 7 24 78 24 77 49 0 49 0 24 -77z"/>
</g>
</svg>
