<?xml version="1.0" standalone="no"?>
<!DOCTYPE svg PUBLIC "-//W3C//DTD SVG 20010904//EN"
 "http://www.w3.org/TR/2001/REC-SVG-20010904/DTD/svg10.dtd">
<svg version="1.0" xmlns="http://www.w3.org/2000/svg"
 width="512.000000pt" height="512.000000pt" viewBox="0 0 512.000000 512.000000"
 preserveAspectRatio="xMidYMid meet">
<metadata>
Created by potrace 1.16, written by Peter Selinger 2001-2019
</metadata>
<g transform="translate(0.000000,512.000000) scale(0.100000,-0.100000)"
fill="#000000" stroke="none">
<path d="M2131 5104 c-178 -48 -332 -187 -397 -359 -44 -118 -25 -185 51 -185
44 0 70 25 85 82 32 117 124 227 233 278 94 45 178 52 570 48 l349 -3 24 -28
c13 -15 24 -40 24 -55 1 -42 34 -107 68 -131 17 -11 54 -26 84 -31 93 -18 93
-16 96 -278 4 -250 -1 -282 -43 -282 -37 0 -62 16 -80 49 -8 16 -30 39 -49 51
-33 20 -43 21 -183 14 -125 -6 -158 -4 -208 10 -116 34 -219 100 -313 198 -24
25 -67 58 -95 74 -117 63 -271 17 -335 -101 -13 -23 -18 -65 -20 -182 l-4
-152 -56 21 c-32 11 -63 27 -69 36 -8 9 -13 44 -13 83 0 61 -3 70 -26 88 -35
28 -67 26 -101 -3 -26 -22 -28 -30 -30 -100 -1 -57 -7 -89 -25 -124 -20 -42
-23 -61 -23 -177 0 -85 5 -144 14 -169 25 -72 123 -156 180 -156 14 0 22 -8
26 -27 39 -186 120 -329 240 -423 56 -45 57 -45 52 -91 -2 -26 -14 -63 -27
-83 -37 -61 -82 -83 -231 -115 -157 -34 -264 -73 -371 -136 l-77 -45 -147 0
c-130 0 -153 -3 -192 -21 -66 -33 -96 -85 -101 -178 -3 -72 -5 -78 -41 -117
-21 -23 -43 -59 -49 -80 -7 -24 -11 -152 -11 -321 l0 -283 -64 -40 c-75 -48
-120 -96 -150 -159 -19 -41 -21 -64 -21 -221 0 -172 0 -176 29 -238 34 -74
108 -146 167 -163 l39 -12 0 -216 c0 -205 1 -219 23 -261 40 -81 61 -86 335
-93 453 -11 737 -74 1060 -234 l115 -58 117 0 117 0 115 58 c323 160 607 223
1060 234 216 5 240 8 274 27 73 41 79 61 82 318 l3 226 25 6 c70 18 141 86
183 176 25 53 26 63 26 230 0 157 -2 180 -21 221 -29 63 -75 111 -148 158
l-64 40 -4 67 c-3 55 -8 70 -27 85 -32 26 -82 24 -109 -4 -20 -21 -22 -35 -24
-177 l-3 -155 -75 -6 c-89 -7 -115 -17 -164 -60 -71 -62 -80 -93 -84 -282 -3
-153 -2 -171 17 -210 38 -78 99 -107 227 -107 l84 0 0 -195 0 -195 -139 0
c-351 0 -727 -60 -973 -155 -51 -20 -101 -39 -110 -42 -17 -5 -18 42 -18 896
l0 902 68 31 c153 70 377 132 582 163 58 8 201 21 318 27 271 15 265 17 272
-98 3 -45 11 -88 18 -97 32 -38 110 -27 131 19 14 31 14 147 0 198 -6 21 -28
57 -48 80 -36 38 -39 46 -43 118 -6 95 -34 145 -100 177 -39 18 -62 21 -192
21 l-147 0 -77 45 c-107 63 -214 102 -372 137 -86 18 -148 38 -171 53 -43 28
-78 80 -85 127 -5 28 -2 35 23 50 162 95 274 264 318 480 3 18 14 29 35 37 50
17 89 50 113 94 l22 42 -4 470 c-2 346 -6 478 -15 500 -31 73 -100 126 -183
140 -38 6 -43 10 -43 33 0 38 -42 122 -76 154 -62 58 -64 58 -536 57 -345 0
-444 -3 -487 -15z m130 -684 c11 -6 49 -40 86 -76 118 -115 266 -198 404 -225
36 -7 108 -10 184 -7 l124 5 30 -37 c41 -52 103 -80 174 -80 l57 0 0 -84 c0
-47 -4 -96 -10 -110 -8 -23 -15 -26 -54 -26 -71 0 -96 -28 -106 -120 -5 -41
-16 -97 -25 -125 -70 -208 -271 -360 -504 -381 -181 -16 -400 89 -505 244 -55
81 -82 153 -95 257 -5 45 -16 84 -25 93 -8 9 -43 19 -77 23 -47 5 -68 13 -87
33 -24 23 -26 35 -30 120 l-4 94 82 -29 c100 -35 155 -37 201 -6 60 40 69 72
69 243 0 143 1 151 23 171 35 33 58 38 88 23z m154 -1408 c76 -20 269 -20 341
0 l51 14 11 -41 c6 -23 27 -65 46 -94 20 -29 36 -54 36 -56 0 -7 -125 -57
-181 -71 -131 -33 -331 -2 -439 70 l-39 25 35 66 c19 37 34 74 34 84 0 24 11
33 29 26 9 -4 43 -14 76 -23z m-268 -286 c66 -46 135 -80 223 -108 64 -19 96
-23 215 -23 119 0 151 4 215 23 80 26 162 65 224 107 l39 26 101 -22 c121 -26
200 -49 193 -55 -2 -3 -60 -16 -128 -30 -228 -46 -407 -110 -558 -199 -51 -30
-102 -55 -112 -55 -10 0 -52 21 -94 46 -151 92 -329 157 -559 205 -76 15 -141
30 -143 33 -7 7 81 32 200 56 56 12 104 24 106 26 11 10 35 1 78 -30z m-422
-215 c287 -43 474 -107 690 -235 65 -38 74 -41 146 -41 70 0 80 3 135 37 274
169 599 253 1026 265 219 6 228 4 228 -52 l0 -33 -142 -7 c-468 -22 -802 -100
-1098 -257 -77 -41 -126 -61 -150 -61 -24 0 -73 20 -150 61 -296 157 -630 235
-1097 257 l-143 7 0 32 c0 58 5 59 225 53 121 -4 251 -14 330 -26z m-146 -247
c264 -31 537 -104 701 -189 l30 -16 0 -900 c0 -854 -1 -901 -17 -896 -10 3
-59 22 -109 41 -247 96 -624 156 -975 156 l-139 0 0 195 0 195 88 1 c103 1
141 13 188 58 49 49 56 84 52 266 -4 180 -14 213 -84 274 -49 43 -75 53 -164
60 l-75 6 -3 370 -2 370 22 19 c21 17 36 18 193 12 94 -4 226 -14 294 -22z
m1026 -294 l45 7 0 -903 c0 -813 -2 -902 -16 -908 -20 -8 -128 -8 -148 0 -14
6 -16 95 -16 908 l0 903 45 -7 c25 -4 65 -4 90 0z m-1637 -573 c32 -29 91 -46
155 -47 51 0 62 -4 88 -29 l29 -29 0 -129 c0 -87 -4 -133 -12 -141 -8 -8 -52
-12 -133 -12 -218 1 -264 46 -265 268 0 120 11 166 53 210 l21 23 22 -48 c11
-26 30 -56 42 -66z m3303 38 c15 -32 19 -64 18 -155 0 -224 -45 -269 -264
-270 -81 0 -125 4 -133 12 -8 8 -12 54 -12 141 l0 129 29 29 c25 25 37 29 83
29 109 0 174 37 204 116 16 43 17 44 37 27 11 -10 28 -36 38 -58z"/>
<path d="M3670 1853 c-249 -24 -383 -47 -558 -95 -86 -23 -117 -36 -132 -56
-24 -30 -25 -60 -4 -90 30 -43 51 -43 211 -2 164 43 368 75 536 86 123 8 144
18 153 76 5 30 2 41 -19 62 -23 23 -34 26 -89 24 -35 0 -79 -3 -98 -5z"/>
</g>
</svg>
