<?xml version="1.0" standalone="no"?>
<!DOCTYPE svg PUBLIC "-//W3C//DTD SVG 20010904//EN"
 "http://www.w3.org/TR/2001/REC-SVG-20010904/DTD/svg10.dtd">
<svg version="1.0" xmlns="http://www.w3.org/2000/svg"
 width="512.000000pt" height="512.000000pt" viewBox="0 0 512.000000 512.000000"
 preserveAspectRatio="xMidYMid meet">
<metadata>
Created by potrace 1.16, written by Peter Selinger 2001-2019
</metadata>
<g transform="translate(0.000000,512.000000) scale(0.100000,-0.100000)"
fill="#000000" stroke="none">
<path d="M2446 4940 c-64 -25 -129 -89 -157 -153 -31 -74 -25 -204 14 -269 81
-139 252 -187 402 -113 202 98 205 406 6 518 -72 41 -189 48 -265 17z m179
-97 c37 -10 87 -55 106 -97 61 -135 -34 -275 -182 -264 -215 16 -236 320 -25
368 29 7 54 5 101 -7z"/>
<path d="M1780 4426 c-412 -172 -765 -487 -984 -874 -42 -74 -45 -106 -13
-126 41 -27 62 -10 125 98 199 340 522 628 887 788 80 36 102 50 109 71 8 21
6 31 -9 47 -23 26 -47 25 -115 -4z"/>
<path d="M3236 4434 c-34 -33 -12 -82 44 -99 42 -13 218 -104 304 -157 245
-152 477 -393 647 -675 53 -86 70 -100 105 -84 39 17 40 53 3 118 -218 387
-548 689 -948 870 -104 47 -131 51 -155 27z"/>
<path d="M2251 4343 c-59 -21 -124 -87 -144 -148 -14 -39 -17 -89 -17 -255 0
-147 3 -209 12 -218 9 -9 125 -12 460 -12 l448 0 16 25 c14 21 16 52 12 227
-4 223 -9 244 -69 313 -19 21 -56 49 -84 61 -49 23 -57 24 -320 23 -218 0
-279 -4 -314 -16z m620 -128 c52 -49 59 -78 59 -245 l0 -150 -55 0 -55 0 0 76
c0 94 -10 114 -55 114 -45 0 -55 -20 -55 -114 l0 -76 -150 0 -150 0 0 83 c0
90 -8 107 -50 107 -42 0 -50 -17 -50 -107 l0 -83 -55 0 -55 0 0 163 c0 181 8
207 72 247 31 19 47 20 300 18 l267 -3 32 -30z"/>
<path d="M2350 3561 c-116 -25 -229 -71 -330 -133 -113 -69 -267 -224 -334
-336 -240 -404 -181 -923 144 -1250 458 -464 1226 -392 1584 147 304 457 196
1071 -247 1397 -100 74 -210 126 -352 166 -105 29 -351 34 -465 9z m160 -291
l0 -199 -52 5 c-81 8 -252 35 -265 42 -13 8 29 117 95 249 l41 81 53 10 c29 5
70 10 91 11 l37 1 0 -200z m230 187 c55 -12 55 -12 92 -82 42 -78 114 -253
107 -259 -6 -7 -173 -33 -251 -40 l-68 -7 0 201 0 200 33 -1 c17 0 57 -6 87
-12z m370 -168 c36 -26 74 -57 84 -68 21 -23 24 -21 -91 -61 l-52 -19 -12 37
c-7 20 -29 76 -50 124 l-37 88 46 -27 c26 -14 76 -48 112 -74z m-986 -11 c-24
-57 -44 -109 -44 -115 0 -18 -9 -17 -91 14 l-73 27 56 50 c49 45 171 126 189
126 4 0 -13 -46 -37 -102z m-181 -200 c51 -17 93 -32 94 -33 1 0 -9 -54 -22
-120 -13 -65 -27 -163 -31 -217 l-7 -98 -163 0 -164 0 0 34 c0 50 44 213 77
287 37 81 99 179 113 179 6 0 52 -14 103 -32z m1400 -45 c68 -114 110 -237
131 -385 l5 -38 -163 0 -163 0 -7 31 c-3 17 -6 50 -6 73 0 46 -25 203 -44 277
l-13 47 81 27 c45 15 88 31 96 36 28 16 36 9 83 -68z m-1033 -48 c52 -8 119
-15 148 -15 l52 0 0 -180 0 -180 -211 0 -212 0 6 91 c6 84 41 282 54 302 3 5
20 6 37 3 17 -4 74 -13 126 -21z m684 -42 c16 -73 31 -171 41 -270 l6 -63
-211 0 -210 0 2 178 3 177 100 7 c55 4 129 14 165 21 36 8 70 15 77 16 6 0 18
-28 27 -66z m-1006 -555 c7 -62 22 -158 35 -213 l22 -100 -104 -37 c-120 -42
-106 -48 -168 61 -68 119 -123 287 -123 376 l0 25 163 0 163 0 12 -112z m522
-62 l0 -173 -80 -7 c-81 -7 -235 -31 -262 -41 -11 -4 -19 11 -31 64 -21 83
-47 252 -47 299 l0 32 210 0 210 0 0 -174z m523 127 c-6 -73 -32 -232 -47
-288 -15 -58 -2 -56 -171 -31 -60 8 -129 16 -152 16 l-43 0 0 175 0 175 209 0
209 0 -5 -47z m443 25 c-3 -13 -10 -54 -16 -92 -17 -105 -75 -246 -142 -344
-28 -41 -30 -42 -56 -28 -15 7 -58 23 -97 36 -38 12 -73 25 -77 29 -3 3 5 56
18 116 13 61 26 148 29 195 4 47 8 91 10 98 3 9 46 12 170 12 l165 0 -4 -22z
m-966 -638 l0 -201 -37 6 c-147 24 -141 21 -173 85 -30 58 -92 207 -104 247
-6 19 -2 22 46 32 79 17 167 28 221 30 l47 1 0 -200z m309 184 c58 -8 109 -18
113 -22 7 -8 -41 -130 -99 -254 l-36 -77 -51 -10 c-28 -5 -68 -12 -88 -15
l-38 -5 0 200 0 199 46 0 c26 0 94 -7 153 -16z m-683 -197 c20 -48 34 -90 32
-92 -12 -12 -248 154 -248 175 0 3 35 18 78 32 l77 26 12 -27 c7 -14 28 -66
49 -114z m1017 111 l58 -21 -28 -29 c-56 -60 -245 -180 -230 -146 4 7 26 61
49 121 49 121 39 116 151 75z"/>
<path d="M580 3179 c-98 -15 -173 -67 -218 -153 -36 -68 -38 -196 -6 -267 27
-58 85 -116 143 -143 72 -33 188 -30 263 7 112 55 164 150 156 286 -5 86 -22
127 -77 184 -64 69 -162 101 -261 86z m145 -132 c149 -82 97 -328 -73 -345
-120 -11 -212 69 -212 183 0 151 150 236 285 162z"/>
<path d="M4442 3178 c-29 -4 -69 -17 -90 -27 -45 -23 -103 -83 -128 -131 -25
-51 -31 -174 -10 -237 78 -235 433 -258 543 -36 24 50 28 70 28 143 0 73 -4
92 -27 136 -60 115 -179 172 -316 152z m101 -109 c47 -13 106 -63 123 -106 28
-66 7 -171 -42 -215 -73 -65 -188 -62 -262 6 -83 75 -69 229 25 287 60 37 98
44 156 28z"/>
<path d="M300 2556 c-59 -31 -98 -71 -124 -126 -18 -40 -21 -68 -24 -248 -3
-174 -1 -206 12 -227 l16 -25 445 0 c390 0 445 2 459 16 14 13 16 47 16 222
-1 145 -5 218 -14 244 -21 57 -72 114 -128 142 l-52 26 -280 0 c-275 -1 -282
-1 -326 -24z m610 -102 c19 -11 45 -35 57 -54 22 -31 23 -43 23 -196 l0 -164
-55 0 -55 0 0 85 c0 78 -2 86 -24 100 -39 26 -72 6 -80 -49 -4 -25 -4 -66 0
-91 l6 -45 -151 0 -151 0 0 84 c0 76 -2 86 -22 100 -30 21 -44 20 -68 -4 -17
-17 -20 -33 -20 -100 l0 -80 -55 0 -55 0 0 152 c0 132 3 157 20 194 42 86 71
93 360 91 217 -2 238 -4 270 -23z"/>
<path d="M4162 2554 c-64 -32 -108 -83 -127 -148 -22 -74 -21 -438 1 -460 14
-14 69 -16 459 -16 l445 0 16 25 c13 21 15 54 12 232 -3 191 -5 211 -25 249
-29 54 -101 117 -151 132 -26 8 -131 12 -309 12 l-269 0 -52 -26z m621 -103
c66 -41 77 -77 77 -256 l0 -155 -55 0 -55 0 0 84 c0 76 -2 86 -22 100 -30 21
-44 20 -68 -4 -17 -17 -20 -33 -20 -100 l0 -80 -145 0 -145 0 0 69 c0 38 -4
81 -9 94 -12 31 -49 41 -78 21 -21 -13 -23 -22 -23 -99 l0 -85 -55 0 -55 0 0
160 c0 169 5 195 48 233 46 42 85 47 332 44 227 -2 236 -3 273 -26z"/>
<path d="M777 1682 c-26 -28 -21 -51 31 -140 80 -140 172 -261 291 -385 128
-132 223 -213 356 -299 110 -72 337 -186 387 -194 31 -6 38 -3 53 20 15 22 16
31 6 52 -6 14 -21 29 -34 32 -12 3 -78 33 -147 67 -342 170 -601 409 -814 755
-33 52 -64 98 -70 102 -19 13 -42 9 -59 -10z"/>
<path d="M4278 1683 c-8 -10 -36 -54 -62 -97 -87 -147 -160 -240 -301 -381
-189 -189 -376 -318 -598 -412 -65 -28 -89 -43 -93 -60 -9 -34 5 -62 33 -69
54 -14 344 136 530 274 112 83 309 281 395 395 76 103 188 287 188 311 0 22
-36 56 -58 56 -11 0 -26 -8 -34 -17z"/>
<path d="M2502 1400 c-98 -20 -186 -93 -219 -183 -16 -46 -16 -167 2 -216 29
-84 89 -142 176 -171 l49 -17 -111 -6 c-158 -9 -230 -46 -282 -142 -20 -37
-22 -57 -25 -261 -3 -194 -1 -223 13 -238 15 -14 62 -16 456 -16 433 0 439 0
460 21 20 20 21 28 17 227 -4 238 -12 267 -90 338 -63 58 -101 68 -250 68
l-128 0 58 16 c81 23 114 43 161 96 127 144 73 388 -103 464 -52 23 -129 31
-184 20z m111 -111 c47 -13 106 -63 123 -106 48 -113 -30 -247 -151 -261 -177
-20 -280 193 -154 319 53 53 110 68 182 48z m228 -612 c31 -16 51 -36 67 -67
20 -40 22 -58 22 -197 l0 -153 -55 0 -55 0 0 84 c0 76 -2 86 -22 100 -58 41
-88 4 -88 -106 l0 -78 -150 0 -150 0 0 90 c0 78 -2 91 -19 100 -58 31 -81 1
-81 -106 l0 -84 -55 0 -55 0 0 160 c0 172 5 193 53 238 13 13 37 27 53 32 16
4 133 9 260 9 222 1 233 0 275 -22z"/>
</g>
</svg>
